<?xml version="1.0" encoding="utf-8"?>
<!-- Generator: Adobe Illustrator 17.1.0, SVG Export Plug-In . SVG Version: 6.00 Build 0)  -->
<!DOCTYPE svg PUBLIC "-//W3C//DTD SVG 1.1//EN" "http://www.w3.org/Graphics/SVG/1.1/DTD/svg11.dtd">
<svg version="1.1" id="Layer_1" xmlns="http://www.w3.org/2000/svg" xmlns:xlink="http://www.w3.org/1999/xlink" x="0px" y="0px"
	 viewBox="0 0 247.9 252.1" enable-background="new 0 0 247.9 579.1" xml:space="preserve">
<g id="spotify-logo" viewBox="0 0 827.79999 248.275">
		<g transform="matrix(1.25 0 0 -1.25 0 248.28)">
			<g transform="scale(.1)">
				<path d="m1580.6 1105.8c-320.13 190.11-848.16 207.59-1153.8 114.84-49.078-14.89-100.97 12.82-115.84 61.89-14.872 49.1 12.8 100.96 61.914 115.88 350.8 106.49 933.97 85.91 1302.5-132.85 44.14-26.2 58.62-83.21 32.45-127.28-26.18-44.14-83.24-58.69-127.27-32.48zm-10.5-281.56c-22.46-36.449-70.11-47.867-106.51-25.5-266.88 164.05-673.86 211.58-989.6 115.73-40.945-12.367-84.191 10.722-96.629 51.582-12.339 40.949 10.754 84.119 51.629 96.569 360.7 109.45 809.1 56.44 1115.6-131.94 36.4-22.41 47.86-70.078 25.48-106.44zm-121.5-270.43c-17.84-29.258-55.95-38.43-85.1-20.598-233.22 142.54-526.75 174.73-872.45 95.758-33.312-7.629-66.511 13.25-74.109 46.551-7.633 33.312 13.164 66.511 46.555 74.109 378.3 86.48 702.8 49.269 964.57-110.69 29.19-17.832 38.38-55.953 20.53-85.132zm-455.48 1432.4c-548.48 0-993.12-444.6-993.12-993.06 0-548.53 444.64-993.14 993.12-993.14 548.5 0 993.12 444.61 993.12 993.14 0 548.47-444.62 993.1-993.12 993.1"></path>
			</g>
		</g>
	</g>
</svg>

